<svg width="80" height="80" fill="none" xmlns="http://www.w3.org/2000/svg"><path fill="#2B2B2B" stroke="#242424" stroke-width="2" d="M1 1h78v78H1z"/><path d="M18.736 56.752l4.608 4.63c.757.824 1.957.824 2.777 0l18.18-18.265c4.609 1.776 10.037.76 13.825-3.044 3.977-3.996 4.987-10.02 2.588-14.84l-8.774 8.625-5.997-6.025 8.585-8.625c-4.798-2.22-10.795-1.395-14.771 2.6-3.851 3.869-4.798 9.26-3.03 13.889l-18.18 18.265c-.758.57-.758 1.966.189 2.79z" fill="url(#paint0_linear)"/><defs><linearGradient id="paint0_linear" x1="70" y1="40" x2="49.5" y2="62" gradientUnits="userSpaceOnUse"><stop stop-color="#61DAFB"/><stop offset="1" stop-color="#FBFBFB"/></linearGradient></defs></svg>