<svg width="50" height="50" fill="none" xmlns="http://www.w3.org/2000/svg"><path d="M10.197 39.803l-8.554-8.554C.63 30.21 0 28.74 0 27.301c0-.665.375-1.705.658-2.301L8.554 8.554l1.643 31.249z" fill="#01579B"/><path d="M39.476 10.197l-8.554-8.554C30.176.893 28.62 0 27.305 0c-1.132 0-2.242.228-2.96.658L8.559 8.554l30.918 1.643zM20.394 50H41.12v-8.881l-15.461-4.937-14.145 4.937L20.394 50z" fill="#40C4FF"/><path d="M8.554 35.197c0 2.64.33 3.286 1.643 4.606l1.316 1.316h29.606L26.647 24.673 8.554 8.553v26.644z" fill="#29B6F6"/><path d="M34.87 8.55H8.554l32.565 32.565H50V20.721L39.472 10.193c-1.478-1.481-2.79-1.643-4.602-1.643z" fill="#01579B"/><path opacity=".2" d="M10.528 40.13c-1.316-1.32-1.643-2.62-1.643-4.933V8.881l-.327-.327v26.643c-.004 2.312-.004 2.952 1.97 4.933l.985.985-.985-.985z" fill="#fff"/><path opacity=".2" d="M49.673 20.394v20.394h-8.881l.327.33H50V20.722l-.327-.327z" fill="#263238"/><path opacity=".2" d="M39.476 10.197c-1.632-1.632-2.967-1.643-4.933-1.643H8.558l.327.327h25.658c.981 0 3.459-.165 4.933 1.316z" fill="#fff"/><path opacity=".2" d="M49.673 20.394L39.476 10.197l-8.554-8.554C30.176.893 28.62 0 27.305 0c-1.133 0-2.243.228-2.96.658L8.558 8.554.662 25c-.284.6-.658 1.64-.658 2.301 0 1.437.632 2.904 1.643 3.948l7.88 7.826c.188.232.409.467.67.728l.327.327.985.985 8.554 8.554.327.327h20.722v-8.88h8.88V20.72l-.32-.327z" fill="url(#paint0_radial)"/><defs><radialGradient id="paint0_radial" cx="0" cy="0" r="1" gradientUnits="userSpaceOnUse" gradientTransform="translate(24.998 24.999) scale(24.9963)"><stop stop-color="#fff" stop-opacity=".1"/><stop offset="1" stop-color="#fff" stop-opacity="0"/></radialGradient></defs></svg>