<svg xmlns="http://www.w3.org/2000/svg" xmlns:xlink="http://www.w3.org/1999/xlink" viewBox="0 0 839 1039"><defs><path id="a" d="M840.4 481.28l-279.6 279.7 279.6 279.7H520.9L401 920.78l-159.8-159.8 279.7-279.7h319.5zM520.9 1.98L1.6 521.28l159.8 159.8 679-679.1H520.9z"/></defs><clipPath id="b"><use xlink:href="#a" overflow="visible"/></clipPath><g clip-path="url(#b)"><path fill="#39CEFD" d="M840.4 481.28H520.9l-279.6 279.7L401 920.78z"/></g><defs><path id="c" d="M840.4 481.28l-279.6 279.7 279.6 279.7H520.9L401 920.78l-159.8-159.8 279.7-279.7h319.5zM520.9 1.98L1.6 521.28l159.8 159.8 679-679.1H520.9z"/></defs><clipPath id="d"><use xlink:href="#c" overflow="visible"/></clipPath><path clip-path="url(#d)" fill="#39CEFD" d="M161.4 681.08L1.6 521.28 520.9 1.98h319.5z"/><defs><path id="e" d="M840.4 481.28l-279.6 279.7 279.6 279.7H520.9L401 920.78l-159.8-159.8 279.7-279.7h319.5zM520.9 1.98L1.6 521.28l159.8 159.8 679-679.1H520.9z"/></defs><clipPath id="f"><use xlink:href="#e" overflow="visible"/></clipPath><path clip-path="url(#f)" fill="#03569B" d="M401 920.78l119.9 119.8h319.5l-279.6-279.6z"/><defs><path id="g" d="M840.4 481.28l-279.6 279.7 279.6 279.7H520.9L401 920.78l-159.8-159.8 279.7-279.7h319.5zM520.9 1.98L1.6 521.28l159.8 159.8 679-679.1H520.9z"/></defs><clipPath id="h"><use xlink:href="#g" overflow="visible"/></clipPath><linearGradient id="i" gradientUnits="userSpaceOnUse" x1="15272.493" y1="9729.589" x2="15748.553" y2="9253.529" gradientTransform="matrix(.25 0 0 .25 -3370.5 -1480.79)"><stop offset="0" stop-color="#1a237e" stop-opacity=".4"/><stop offset="1" stop-color="#1a237e" stop-opacity="0"/></linearGradient><path clip-path="url(#h)" fill="url(#i)" d="M401 920.78l237-82.1-77.2-77.7z"/><defs><path id="j" d="M840.4 481.28l-279.6 279.7 279.6 279.7H520.9L401 920.78l-159.8-159.8 279.7-279.7h319.5zM520.9 1.98L1.6 521.28l159.8 159.8 679-679.1H520.9z"/></defs><clipPath id="k"><use xlink:href="#j" overflow="visible"/></clipPath><g clip-path="url(#k)"><path fill="#16B9FD" d="M241.28 760.924l159.804-159.805 159.805 159.805-159.805 159.804z"/></g><radialGradient id="l" cx="13582.658" cy="6214.26" r="5082.889" gradientTransform="matrix(.25 0 0 .25 -3370.5 -1480.79)" gradientUnits="userSpaceOnUse"><stop offset="0" stop-color="#fff" stop-opacity=".1"/><stop offset="1" stop-color="#fff" stop-opacity="0"/></radialGradient><path fill="url(#l)" d="M840.4 481.28l-279.6 279.7 279.6 279.7H520.9L401 920.78l-159.8-159.8 279.7-279.7h319.5zM520.9 1.98L1.6 521.28l159.8 159.8 679-679.1H520.9z"/></svg>