<svg width="60" height="60" fill="none" xmlns="http://www.w3.org/2000/svg"><path d="M54.978 25.028c0 13.823-11.205 25.029-25.028 25.029-13.822 0-25.028-11.206-25.028-25.029C4.922 11.206 16.128 0 29.95 0c13.823 0 25.028 11.206 25.028 25.028z" fill="url(#paint0_radial)"/><path d="M7.653 36.407a25 25 0 004.6 6.32c9.775 9.773 25.622 9.772 35.396-.002a25.019 25.019 0 004.598-6.318H7.653z" fill="url(#paint1_linear)"/><path d="M47.505 48.648h-35.11v-.646a2.615 2.615 0 012.615-2.615h29.88a2.615 2.615 0 012.615 2.615v.646z" fill="url(#paint2_linear)"/><path d="M18.645 48.648h28.86v-.646a2.615 2.615 0 00-2.615-2.615H15.383l3.262 3.261z" fill="url(#paint3_linear)"/><path d="M48.49 52.964H11.41a.937.937 0 01-.937-.936v-1.385a2.496 2.496 0 012.496-2.496h33.962a2.496 2.496 0 012.497 2.496v1.385c0 .517-.42.936-.937.936z" fill="url(#paint4_linear)"/><path d="M49.428 52.028v-1.385a2.496 2.496 0 00-2.497-2.496H12.969c-.197 0-.389.023-.573.066l4.75 4.751h31.345c.517 0 .937-.42.937-.936z" fill="url(#paint5_linear)"/><path d="M48.518 13.917c0-6.94-8.315-12.565-18.572-12.565-10.256 0-18.571 5.626-18.571 12.565 0 6.94 8.315 12.566 18.572 12.566 10.256 0 18.571-5.625 18.571-12.566z" fill="url(#paint6_linear)"/><path d="M35.645 25.85a2.38 2.38 0 001.793 1.302c1.953.284 2.733 2.684 1.32 4.062a2.383 2.383 0 00-.685 2.108c.333 1.945-1.708 3.429-3.455 2.51a2.38 2.38 0 00-2.216 0c-1.747.919-3.789-.565-3.455-2.51a2.382 2.382 0 00-.685-2.108c-1.414-1.377-.634-3.778 1.32-4.062a2.38 2.38 0 001.792-1.302c.874-1.77 3.398-1.77 4.271 0z" fill="url(#paint7_linear)"/><path d="M17.228 20.396c.235.476.689.806 1.214.883 1.324.191 1.852 1.818.895 2.751-.38.37-.554.905-.464 1.428.226 1.318-1.158 2.323-2.34 1.7a1.613 1.613 0 00-1.502 0c-1.184.623-2.567-.382-2.341-1.7a1.613 1.613 0 00-.464-1.428c-.958-.933-.43-2.56.894-2.751.526-.077.98-.407 1.215-.883.591-1.2 2.301-1.2 2.893 0z" fill="url(#paint8_linear)"/><path d="M44.731 13.355c.168.34.493.576.868.63.946.138 1.323 1.3.639 1.967a1.153 1.153 0 00-.332 1.02 1.153 1.153 0 01-1.672 1.215 1.152 1.152 0 00-1.073 0 1.153 1.153 0 01-1.672-1.215 1.151 1.151 0 00-.332-1.02 1.153 1.153 0 01.64-1.966c.374-.055.699-.291.867-.631.422-.857 1.644-.857 2.067 0z" fill="url(#paint9_linear)"/><path d="M46.85 28.507c.118.24.348.408.614.446.669.097.936.92.452 1.392a.817.817 0 00-.235.722.816.816 0 01-1.184.86.816.816 0 00-.76 0 .816.816 0 01-1.183-.86.817.817 0 00-.235-.722.816.816 0 01.453-1.392.815.815 0 00.614-.446.816.816 0 011.463 0z" fill="url(#paint10_linear)"/><path d="M39.048 4.093a.815.815 0 00.614.447c.67.097.937.92.452 1.392a.816.816 0 00-.235.722.816.816 0 01-1.183.86.816.816 0 00-.76 0 .816.816 0 01-1.184-.86.816.816 0 00-.234-.722.816.816 0 01.452-1.392.816.816 0 00.614-.447.816.816 0 011.464 0z" fill="url(#paint11_linear)"/><path d="M23.375 34.194a.82.82 0 00.614.446c.67.097.937.92.452 1.392a.817.817 0 00-.234.722.816.816 0 01-1.184.86.816.816 0 00-.76 0 .816.816 0 01-1.183-.86.816.816 0 00-.235-.722.816.816 0 01.452-1.392.816.816 0 00.614-.446.816.816 0 011.464 0z" fill="url(#paint12_linear)"/><path d="M26.621 6.66c.168.34.493.575.868.63.945.137 1.323 1.3.639 1.966a1.154 1.154 0 00-.332 1.02 1.153 1.153 0 01-1.672 1.216 1.152 1.152 0 00-1.073 0 1.153 1.153 0 01-1.672-1.216 1.152 1.152 0 00-.332-1.02 1.153 1.153 0 01.64-1.966c.374-.055.699-.29.867-.63a1.153 1.153 0 012.067 0z" fill="url(#paint13_linear)"/><path d="M51.66 58.91h-.897a2.029 2.029 0 01-1.943-1.445 1.536 1.536 0 00-1.472-1.095l.346 1.648a1.142 1.142 0 01-1.117 1.377h-4.27a1.143 1.143 0 01-1.119-.908 1.142 1.142 0 00-1.118-.907h-2.5a2.043 2.043 0 01-1.865 1.21h-4.958a1.686 1.686 0 01-1.687-1.687v-.916a1.027 1.027 0 00-2.041-.16l-.336 2.13A2.183 2.183 0 0124.527 60H16.95a1.12 1.12 0 01-1.1-1.331 1.12 1.12 0 00-1.102-1.331h-.547c-.608 0-1.147.39-1.336.968-.19.577-.729.968-1.337.968H8.117a.83.83 0 01-.786-1.096l2.843-8.398a2.59 2.59 0 012.453-1.76h34.769a2.59 2.59 0 012.453 1.76l2.68 7.918a.918.918 0 01-.869 1.213z" fill="url(#paint14_linear)"/><path d="M51.66 58.91a.918.918 0 00.87-1.212l-2.681-7.918a2.59 2.59 0 00-2.454-1.76h-2.317l2.27 8.35c.679 0 1.276.445 1.471 1.095a2.029 2.029 0 001.944 1.446h.897z" fill="url(#paint15_linear)"/><path d="M41.188 58.487c.111.53.578.908 1.118.908h4.27c.726 0 1.267-.667 1.118-1.377l-.346-1.648c.679 0 1.277.445 1.472 1.095a2.03 2.03 0 001.943 1.446h.897a.918.918 0 00.87-1.213l-2.68-7.918a2.59 2.59 0 00-2.454-1.76H36.89l.679 9.56h2.501c.54 0 1.007.378 1.118.907z" fill="url(#paint16_linear)"/><path d="M14.202 57.338h.547c.704 0 1.233.64 1.101 1.331A1.12 1.12 0 0016.951 60h5.316V48.022H16.12l-3.255 10.285c.19-.578.729-.968 1.337-.968z" fill="url(#paint17_linear)"/><path d="M20.853 48.02L19.248 60h5.279a2.183 2.183 0 002.155-1.843l.336-2.13c.012-.082.036-.16.066-.234l.023-.15.984-7.622h-7.238z" fill="url(#paint18_linear)"/><path d="M27.017 56.027a1.027 1.027 0 012.042.16V53.16a.964.964 0 00-1.928-.038l-.114 2.905z" fill="url(#paint19_linear)"/><path d="M49.85 49.78a2.59 2.59 0 00-2.454-1.76H32.552v10.77h3.152c.805 0 1.536-.474 1.865-1.21h2.501c.541 0 1.007.378 1.118.907.111.53.578.908 1.118.908h4.27c.726 0 1.267-.667 1.118-1.377l-.346-1.648c.679 0 1.277.445 1.472 1.095a2.029 2.029 0 001.943 1.446h.897a.918.918 0 00.87-1.213l-2.68-7.918z" fill="url(#paint20_linear)"/><defs><linearGradient id="paint1_linear" x1="29.95" y1="40.06" x2="29.95" y2="47.25" gradientUnits="userSpaceOnUse"><stop stop-color="#C73A6F" stop-opacity="0"/><stop offset="1" stop-color="#C73A6F"/></linearGradient><linearGradient id="paint2_linear" x1="29.95" y1="46.1" x2="29.95" y2="49.608" gradientUnits="userSpaceOnUse"><stop stop-color="#FFB92D"/><stop offset="1" stop-color="#F59500"/></linearGradient><linearGradient id="paint3_linear" x1="31.703" y1="47.661" x2="29.772" y2="39.325" gradientUnits="userSpaceOnUse"><stop stop-color="#BE3F45" stop-opacity="0"/><stop offset="1" stop-color="#BE3F45"/></linearGradient><linearGradient id="paint4_linear" x1="29.95" y1="49.297" x2="29.95" y2="52.653" gradientUnits="userSpaceOnUse"><stop stop-color="#FFB92D"/><stop offset="1" stop-color="#F59500"/></linearGradient><linearGradient id="paint5_linear" x1="31.06" y1="49.84" x2="28.846" y2="41.269" gradientUnits="userSpaceOnUse"><stop stop-color="#BE3F45" stop-opacity="0"/><stop offset="1" stop-color="#BE3F45"/></linearGradient><linearGradient id="paint6_linear" x1="29.947" y1="30.658" x2="29.947" y2=".479" gradientUnits="userSpaceOnUse"><stop offset=".001" stop-color="#E7EEED" stop-opacity="0"/><stop offset=".773" stop-color="#F9FBFA" stop-opacity=".773"/><stop offset="1" stop-color="#fff"/></linearGradient><linearGradient id="paint7_linear" x1="35.748" y1="35.407" x2="27.897" y2="16.287" gradientUnits="userSpaceOnUse"><stop offset=".001" stop-color="#E7EEED" stop-opacity="0"/><stop offset=".773" stop-color="#F9FBFA" stop-opacity=".773"/><stop offset="1" stop-color="#fff"/></linearGradient><linearGradient id="paint8_linear" x1="17.298" y1="26.871" x2="11.979" y2="13.917" gradientUnits="userSpaceOnUse"><stop offset=".001" stop-color="#E7EEED" stop-opacity="0"/><stop offset=".773" stop-color="#F9FBFA" stop-opacity=".773"/><stop offset="1" stop-color="#fff"/></linearGradient><linearGradient id="paint9_linear" x1="44.781" y1="17.981" x2="40.981" y2="8.726" gradientUnits="userSpaceOnUse"><stop offset=".001" stop-color="#E7EEED" stop-opacity="0"/><stop offset=".773" stop-color="#F9FBFA" stop-opacity=".773"/><stop offset="1" stop-color="#fff"/></linearGradient><linearGradient id="paint10_linear" x1="46.885" y1="31.782" x2="44.194" y2="25.23" gradientUnits="userSpaceOnUse"><stop offset=".001" stop-color="#E7EEED" stop-opacity="0"/><stop offset=".773" stop-color="#F9FBFA" stop-opacity=".773"/><stop offset="1" stop-color="#fff"/></linearGradient><linearGradient id="paint11_linear" x1="39.083" y1="7.368" x2="36.393" y2=".817" gradientUnits="userSpaceOnUse"><stop offset=".001" stop-color="#E7EEED" stop-opacity="0"/><stop offset=".773" stop-color="#F9FBFA" stop-opacity=".773"/><stop offset="1" stop-color="#fff"/></linearGradient><linearGradient id="paint12_linear" x1="23.41" y1="37.469" x2="20.72" y2="30.917" gradientUnits="userSpaceOnUse"><stop offset=".001" stop-color="#E7EEED" stop-opacity="0"/><stop offset=".773" stop-color="#F9FBFA" stop-opacity=".773"/><stop offset="1" stop-color="#fff"/></linearGradient><linearGradient id="paint13_linear" x1="26.671" y1="11.286" x2="22.871" y2="2.03" gradientUnits="userSpaceOnUse"><stop offset=".001" stop-color="#E7EEED" stop-opacity="0"/><stop offset=".773" stop-color="#F9FBFA" stop-opacity=".773"/><stop offset="1" stop-color="#fff"/></linearGradient><linearGradient id="paint14_linear" x1="15.49" y1="54.01" x2="45.462" y2="54.01" gradientUnits="userSpaceOnUse"><stop stop-color="#D767C7"/><stop offset=".317" stop-color="#D161C3"/><stop offset=".743" stop-color="#C050B6"/><stop offset="1" stop-color="#B342AC"/></linearGradient><linearGradient id="paint15_linear" x1="50.01" y1="51.894" x2="45.21" y2="57.138" gradientUnits="userSpaceOnUse"><stop stop-color="#B342AC" stop-opacity="0"/><stop offset=".26" stop-color="#A4319C" stop-opacity=".259"/><stop offset=".72" stop-color="#8D1885" stop-opacity=".722"/><stop offset="1" stop-color="#850F7C"/></linearGradient><linearGradient id="paint16_linear" x1="44.228" y1="53.889" x2="40.397" y2="59.495" gradientUnits="userSpaceOnUse"><stop stop-color="#B342AC" stop-opacity="0"/><stop offset=".26" stop-color="#A4319C" stop-opacity=".259"/><stop offset=".72" stop-color="#8D1885" stop-opacity=".722"/><stop offset="1" stop-color="#850F7C"/></linearGradient><linearGradient id="paint17_linear" x1="17.594" y1="55.265" x2="9.729" y2="61.436" gradientUnits="userSpaceOnUse"><stop stop-color="#B342AC" stop-opacity="0"/><stop offset=".26" stop-color="#A4319C" stop-opacity=".259"/><stop offset=".72" stop-color="#8D1885" stop-opacity=".722"/><stop offset="1" stop-color="#850F7C"/></linearGradient><linearGradient id="paint18_linear" x1="22.837" y1="53.297" x2="15.698" y2="47.187" gradientUnits="userSpaceOnUse"><stop stop-color="#B342AC" stop-opacity="0"/><stop offset=".26" stop-color="#A4319C" stop-opacity=".259"/><stop offset=".72" stop-color="#8D1885" stop-opacity=".722"/><stop offset="1" stop-color="#850F7C"/></linearGradient><linearGradient id="paint19_linear" x1="28.038" y1="56.642" x2="28.038" y2="51.449" gradientUnits="userSpaceOnUse"><stop stop-color="#B342AC" stop-opacity="0"/><stop offset=".26" stop-color="#A4319C" stop-opacity=".259"/><stop offset=".72" stop-color="#8D1885" stop-opacity=".722"/><stop offset="1" stop-color="#850F7C"/></linearGradient><linearGradient id="paint20_linear" x1="36.158" y1="51.551" x2="20.126" y2="44.291" gradientUnits="userSpaceOnUse"><stop stop-color="#B342AC" stop-opacity="0"/><stop offset=".26" stop-color="#A4319C" stop-opacity=".259"/><stop offset=".72" stop-color="#8D1885" stop-opacity=".722"/><stop offset="1" stop-color="#850F7C"/></linearGradient><radialGradient id="paint0_radial" cx="0" cy="0" r="1" gradientUnits="userSpaceOnUse" gradientTransform="rotate(44.996 -7.623 45.657) scale(32.4481)"><stop stop-color="#FFB2BC"/><stop offset=".44" stop-color="#FEB0BC"/><stop offset=".598" stop-color="#F9A9BB"/><stop offset=".711" stop-color="#F19EB9"/><stop offset=".802" stop-color="#E68DB7"/><stop offset=".88" stop-color="#D777B4"/><stop offset=".948" stop-color="#C55CB0"/><stop offset="1" stop-color="#B342AC"/></radialGradient></defs></svg>