<svg width="80" height="80" fill="none" xmlns="http://www.w3.org/2000/svg"><path fill="#2B2B2B" stroke="#242424" stroke-width="2" d="M1 1h78v78H1z"/><path clip-rule="evenodd" d="M48.474 12a13.159 13.159 0 017.508 2.347 13.9 13.9 0 014.983 6.277 14.482 14.482 0 01.779 8.09 14.17 14.17 0 01-3.689 7.176 13.359 13.359 0 01-6.912 3.839c-2.62.542-5.335.267-7.803-.792a13.619 13.619 0 01-6.063-5.156A14.371 14.371 0 0135 26c-.003-3.71 1.415-7.268 3.942-9.893 2.526-2.626 5.955-4.103 9.532-4.107v0z" stroke="#10A8C8" stroke-width="2" stroke-linecap="round"/><path d="M24.344 68l2.1-19.304s.434-2.213-1.47-5.549c-1.905-3.335-12.605-22.792-12.605-22.792s-3.09-10.892 8.613-7.803C32.685 15.64 38 17.272 38 17.272M31 36l-9-15m34 31l1 16m0-30l2.939 3.044c1.382 1.648 2.302 3.87 2.612 6.304C62.97 51.248 65 68 65 68" stroke="#10A8C8" stroke-width="2" stroke-linecap="round"/></svg>