<svg width="55" height="58" fill="none" xmlns="http://www.w3.org/2000/svg"><path clip-rule="evenodd" d="M37.474 1a13.158 13.158 0 017.508 2.346 13.901 13.901 0 014.983 6.278 14.482 14.482 0 01.779 8.09 14.17 14.17 0 01-3.689 7.176 13.359 13.359 0 01-6.912 3.839c-2.62.542-5.335.267-7.803-.792a13.619 13.619 0 01-6.063-5.156A14.371 14.371 0 0124 15c-.003-3.71 1.415-7.268 3.942-9.893C30.468 2.48 33.897 1.004 37.474 1v0z" stroke="#10A8C8" stroke-width="2" stroke-linecap="round"/><path d="M13.344 57l2.1-19.304s.434-2.213-1.47-5.549C12.069 28.812 1.368 9.355 1.368 9.355s-3.09-10.892 8.613-7.803C21.685 4.64 27 6.272 27 6.272M20 25l-9-15m34 31l1 16m0-30l2.939 3.044c1.382 1.648 2.302 3.87 2.612 6.304C51.97 40.248 54 57 54 57" stroke="#10A8C8" stroke-width="2" stroke-linecap="round"/></svg>