<svg width="52" height="52" fill="none" xmlns="http://www.w3.org/2000/svg"><g filter="url(#filter0_d)"><path d="M4.736 38.752l4.608 4.63c.757.824 1.957.824 2.777 0l18.18-18.265c4.609 1.776 10.037.76 13.825-3.044 3.977-3.996 4.987-10.02 2.588-14.84l-8.774 8.625-5.997-6.025 8.585-8.625c-4.798-2.22-10.795-1.395-14.771 2.6-3.851 3.869-4.798 9.26-3.03 13.889L4.547 35.962c-.758.57-.758 1.966.189 2.79z" fill="url(#paint0_linear)"/><path d="M5.09 38.4l-.012-.013-.014-.012a1.614 1.614 0 01-.563-1.136c-.018-.399.129-.714.346-.878l.029-.021.025-.026L23.08 18.05l.228-.23-.115-.302c-1.7-4.45-.792-9.631 2.917-13.357C29.75.504 35.158-.392 39.654 1.377L31.587 9.48l-.35.353.35.353 5.997 6.024.35.353.355-.349 8.268-8.127c1.915 4.508.872 9.957-2.786 13.633-3.647 3.664-8.866 4.636-13.29 2.93l-.305-.117-.23.231-18.18 18.265c-.633.636-1.503.615-2.055.014l-.007-.007-.007-.007-4.608-4.63z" stroke="#000" stroke-opacity=".77"/></g><defs><linearGradient id="paint0_linear" x1="21.5" y1="50.5" x2="106" y2="-36.5" gradientUnits="userSpaceOnUse"><stop stop-color="#fff"/><stop offset="1" stop-color="#fff" stop-opacity="0"/></linearGradient><filter id="filter0_d" x="0" y="0" width="52" height="52" filterUnits="userSpaceOnUse" color-interpolation-filters="sRGB"><feFlood flood-opacity="0" result="BackgroundImageFix"/><feColorMatrix in="SourceAlpha" values="0 0 0 0 0 0 0 0 0 0 0 0 0 0 0 0 0 0 127 0"/><feOffset dy="4"/><feGaussianBlur stdDeviation="2"/><feColorMatrix values="0 0 0 0 0 0 0 0 0 0 0 0 0 0 0 0 0 0 0.25 0"/><feBlend in2="BackgroundImageFix" result="effect1_dropShadow"/><feBlend in="SourceGraphic" in2="effect1_dropShadow" result="shape"/></filter></defs></svg>