<svg width="80" height="80" viewBox="0 0 80 80" fill="none" xmlns="http://www.w3.org/2000/svg">
<rect x="1" y="1" width="78" height="78" fill="#2B2B2B" stroke="#242424" stroke-width="2"/>
<path d="M18.7358 56.752L23.3439 61.3817C24.1014 62.2061 25.3008 62.2061 26.1215 61.3817L44.3015 43.1169C48.9096 44.8926 54.3384 43.8779 58.1259 40.0728C62.1028 36.0773 63.1128 30.0525 60.7141 25.2326L51.9397 33.8577L45.9428 27.8328L54.5278 19.2078C49.7303 16.9881 43.7334 17.8126 39.7565 21.808C35.9059 25.6766 34.959 31.0672 36.7265 35.6968L18.5464 53.9616C17.7889 54.5324 17.7889 55.9276 18.7358 56.752Z" fill="url(#paint0_linear)"/>
<defs>
<linearGradient id="paint0_linear" x1="70" y1="40" x2="49.5" y2="62" gradientUnits="userSpaceOnUse">
<stop stop-color="#61DAFB"/>
<stop offset="1" stop-color="#FBFBFB"/>
</linearGradient>
</defs>
</svg>