<svg width="50" height="50" viewBox="0 0 50 50" fill="none" xmlns="http://www.w3.org/2000/svg">
<path d="M10.197 39.803L1.64314 31.2491C0.628584 30.2088 0 28.7384 0 27.3011C0 26.6358 0.374945 25.5955 0.657991 25L8.55389 8.55389L10.197 39.803Z" fill="#01579B"/>
<path d="M39.4758 10.197L30.9219 1.64314C30.1757 0.893251 28.6208 0 27.3048 0C26.1726 0 25.0625 0.227908 24.3457 0.657992L8.55756 8.55389L39.4758 10.197Z" fill="#40C4FF"/>
<path d="M20.3941 50H41.119V41.119L25.658 36.1822L11.513 41.119L20.3941 50Z" fill="#40C4FF"/>
<path d="M8.55389 35.197C8.55389 37.8364 8.88473 38.4833 10.197 39.803L11.513 41.119H41.119L26.6468 24.6728L8.55389 8.55389V35.197Z" fill="#29B6F6"/>
<path d="M34.8699 8.55023H8.55389L41.119 41.1153H50V20.7212L39.4721 10.1934C37.9944 8.71197 36.6821 8.55023 34.8699 8.55023Z" fill="#01579B"/>
<path opacity="0.2" d="M10.5279 40.1301C9.21188 38.8105 8.88472 37.5092 8.88472 35.197V8.88105L8.55756 8.55389V35.197C8.55389 37.5092 8.55389 38.1488 10.5279 40.1301L11.513 41.1153L10.5279 40.1301Z" fill="white"/>
<path opacity="0.2" d="M49.6728 20.394V40.7881H40.7918L41.119 41.1189H50V20.7212L49.6728 20.394Z" fill="#263238"/>
<path opacity="0.2" d="M39.4758 10.197C37.8437 8.56492 36.5093 8.55389 34.5427 8.55389H8.55756L8.88472 8.88105H34.5427C35.5242 8.88105 38.0018 8.71563 39.4758 10.197Z" fill="white"/>
<path opacity="0.2" d="M49.6727 20.3941L39.4757 10.197L30.9218 1.64314C30.1756 0.893251 28.6207 0 27.3047 0C26.1725 0 25.0624 0.227908 24.3455 0.657991L8.55742 8.55389L0.661524 25C0.378477 25.5992 0.00353241 26.6395 0.00353241 27.3011C0.00353241 28.7384 0.635793 30.2051 1.64667 31.2491L9.52787 39.0751C9.71534 39.3067 9.9359 39.542 10.1969 39.803L10.524 40.1301L11.5092 41.1153L20.0631 49.6692L20.3902 49.9963H40.7843H41.1115V41.1153H49.9925V41.0932V20.7212L49.6727 20.3941Z" fill="url(#paint0_radial)"/>
<defs>
<radialGradient id="paint0_radial" cx="0" cy="0" r="1" gradientUnits="userSpaceOnUse" gradientTransform="translate(24.998 24.999) scale(24.9963)">
<stop stop-color="white" stop-opacity="0.1"/>
<stop offset="1" stop-color="white" stop-opacity="0"/>
</radialGradient>
</defs>
</svg>
