<svg width="60" height="60" viewBox="0 0 60 60" fill="none" xmlns="http://www.w3.org/2000/svg">
<path d="M54.9784 25.0282C54.9784 38.8509 43.7728 50.0565 29.9502 50.0565C16.1275 50.0565 4.92194 38.8509 4.92194 25.0282C4.92194 11.2056 16.1275 0 29.9502 0C43.7728 0 54.9784 11.2056 54.9784 25.0282Z" fill="url(#paint0_radial)"/>
<path d="M7.65294 36.4072C8.81566 38.6842 10.3478 40.821 12.2535 42.7262C22.0281 52.4999 37.875 52.499 47.6487 42.7248C49.553 40.8196 51.0851 38.6837 52.2474 36.4072H7.65294Z" fill="url(#paint1_linear)"/>
<path d="M47.5054 48.6483H12.3949V48.0019C12.3949 46.5577 13.5654 45.3872 15.0096 45.3872H44.8906C46.3349 45.3872 47.5054 46.5577 47.5054 48.0019V48.6483Z" fill="url(#paint2_linear)"/>
<path d="M18.6448 48.6483H47.5054V48.0019C47.5054 46.5577 46.3344 45.3872 44.8902 45.3872H15.3832L18.6448 48.6483Z" fill="url(#paint3_linear)"/>
<path d="M48.4909 52.9641H11.4093C10.8921 52.9641 10.4727 52.5448 10.4727 52.0275V50.6428C10.4727 49.264 11.5906 48.1466 12.9694 48.1466H46.9309C48.3097 48.1466 49.4275 49.264 49.4275 50.6428V52.0275C49.4275 52.5448 49.0082 52.9641 48.4909 52.9641Z" fill="url(#paint4_linear)"/>
<path d="M49.4275 52.0275V50.6428C49.4275 49.264 48.3097 48.1466 46.9309 48.1466H12.9694C12.7721 48.1466 12.5803 48.1699 12.3963 48.2134L17.1469 52.9641H48.4909C49.0082 52.9641 49.4275 52.5448 49.4275 52.0275V52.0275Z" fill="url(#paint5_linear)"/>
<path d="M48.518 13.9174C48.518 6.97769 40.2031 1.35178 29.9465 1.35178C19.6898 1.35178 11.375 6.97769 11.375 13.9174C11.375 20.8575 19.6898 26.4835 29.9465 26.4835C40.2031 26.4835 48.518 20.8575 48.518 13.9174Z" fill="url(#paint6_linear)"/>
<path d="M35.6452 25.8499C35.9921 26.5525 36.6623 27.0396 37.4382 27.1522C39.391 27.436 40.1711 29.8365 38.7575 31.2139C38.1967 31.761 37.9404 32.5492 38.0727 33.322C38.4064 35.267 36.3648 36.7506 34.6179 35.8319C33.924 35.467 33.0954 35.467 32.4019 35.8319C30.6546 36.7506 28.613 35.267 28.9467 33.322C29.079 32.5492 28.8231 31.761 28.2619 31.2139C26.8483 29.8365 27.6283 27.436 29.5816 27.1522C30.3571 27.0396 31.0277 26.5525 31.3742 25.8499C32.2481 24.0802 34.7717 24.0802 35.6452 25.8499Z" fill="url(#paint7_linear)"/>
<path d="M17.228 20.3961C17.4628 20.8721 17.9169 21.2022 18.4424 21.2786C19.7658 21.4704 20.2941 23.0969 19.3369 24.0303C18.9565 24.4006 18.783 24.9348 18.8727 25.458C19.0989 26.7759 17.7155 27.7807 16.5322 27.1586C16.0621 26.9114 15.5004 26.9114 15.0307 27.1586C13.8469 27.7807 12.464 26.7759 12.6897 25.458C12.7794 24.9348 12.6059 24.4006 12.226 24.0303C11.2684 23.0969 11.7966 21.4704 13.12 21.2786C13.6455 21.2022 14.0996 20.8721 14.3349 20.3961C14.9263 19.1967 16.6361 19.1967 17.228 20.3961Z" fill="url(#paint8_linear)"/>
<path d="M44.7313 13.3548C44.8993 13.6949 45.2238 13.9306 45.5992 13.9856C46.5445 14.1229 46.9221 15.2847 46.2378 15.9517C45.9663 16.2163 45.8423 16.598 45.9063 16.9716C46.0679 17.9132 45.0796 18.6314 44.2341 18.1869C43.8981 18.0102 43.4971 18.0102 43.1611 18.1869C42.3156 18.6314 41.3273 17.9132 41.4889 16.9716C41.553 16.598 41.429 16.2163 41.157 15.9517C40.4731 15.2847 40.8508 14.1229 41.7961 13.9856C42.1714 13.9306 42.496 13.6949 42.664 13.3548C43.0865 12.4983 44.3083 12.4983 44.7313 13.3548Z" fill="url(#paint9_linear)"/>
<path d="M46.8493 28.5067C46.9684 28.7475 47.1977 28.9146 47.4637 28.953C48.1329 29.0501 48.4002 29.8727 47.9159 30.3446C47.7237 30.5323 47.6358 30.8024 47.6811 31.067C47.7955 31.7335 47.0961 32.2416 46.4973 31.9271C46.2597 31.8022 45.9755 31.8022 45.7379 31.9271C45.1391 32.2416 44.4397 31.7335 44.5541 31.067C44.5994 30.8024 44.5115 30.5323 44.3193 30.3446C43.835 29.8727 44.1023 29.0501 44.7715 28.953C45.0375 28.9146 45.2673 28.7475 45.3859 28.5067C45.6852 27.9002 46.55 27.9002 46.8493 28.5067V28.5067Z" fill="url(#paint10_linear)"/>
<path d="M39.0477 4.09332C39.1662 4.3341 39.396 4.50118 39.662 4.53963C40.3313 4.63714 40.5986 5.45974 40.1143 5.93169C39.922 6.11892 39.8341 6.389 39.8794 6.65359C39.9939 7.32055 39.294 7.82867 38.6957 7.51372C38.4581 7.38875 38.1738 7.38875 37.9362 7.51372C37.3375 7.82867 36.638 7.32009 36.7525 6.65359C36.7978 6.389 36.7099 6.11892 36.5176 5.93169C36.0333 5.45928 36.3006 4.63714 36.9699 4.53963C37.2354 4.50118 37.4652 4.3341 37.5842 4.09332C37.8836 3.48678 38.7483 3.48678 39.0477 4.09332V4.09332Z" fill="url(#paint11_linear)"/>
<path d="M23.3748 34.194C23.4938 34.4347 23.7236 34.6014 23.9891 34.6403C24.6584 34.7373 24.9257 35.5599 24.4414 36.0319C24.2492 36.2196 24.1613 36.4897 24.2066 36.7542C24.321 37.4207 23.6216 37.9289 23.0228 37.6144C22.7852 37.4894 22.5014 37.4894 22.2634 37.6144C21.6651 37.9289 20.9652 37.4207 21.0796 36.7542C21.1249 36.4897 21.0375 36.2196 20.8448 36.0319C20.3605 35.5599 20.6278 34.7373 21.297 34.6403C21.563 34.6014 21.7928 34.4347 21.9114 34.194C22.2107 33.5874 23.0754 33.5874 23.3748 34.194Z" fill="url(#paint12_linear)"/>
<path d="M26.6213 6.65953C26.7893 6.99965 27.1138 7.2354 27.4892 7.28987C28.4345 7.4272 28.8121 8.58946 28.1278 9.25597C27.8563 9.52101 27.7323 9.90233 27.7963 10.2763C27.9579 11.2179 26.9696 11.9362 26.1241 11.4917C25.7881 11.315 25.3871 11.315 25.0511 11.4917C24.2056 11.9362 23.2173 11.2179 23.3789 10.2763C23.443 9.90233 23.319 9.52101 23.047 9.25597C22.3631 8.58946 22.7408 7.4272 23.6861 7.28987C24.0614 7.2354 24.386 6.99965 24.554 6.65953C24.977 5.8026 26.1983 5.8026 26.6213 6.65953Z" fill="url(#paint13_linear)"/>
<path d="M51.66 58.9109H50.7633C49.867 58.9109 49.0769 58.3231 48.8196 57.4648C48.6246 56.8148 48.0268 56.3698 47.3484 56.3698L47.6944 58.0182C47.8432 58.7278 47.3017 59.3947 46.5766 59.3947H42.3061C41.7659 59.3947 41.2995 59.0162 41.1882 58.4875C41.0775 57.9583 40.611 57.5797 40.0704 57.5797H37.5687C37.24 58.3158 36.5094 58.7896 35.7038 58.7896H30.7457C29.8142 58.7896 29.0593 58.0347 29.0593 57.1032V56.1867C29.0593 55.6196 28.5993 55.16 28.0321 55.16C27.5267 55.16 27.096 55.5276 27.0177 56.027L26.6822 58.1569C26.5151 59.218 25.6005 59.9999 24.5266 59.9999H16.9515C16.2479 59.9999 15.7183 59.3595 15.8501 58.6687C15.9819 57.978 15.4523 57.338 14.7492 57.338H14.2017C13.5938 57.338 13.055 57.7285 12.8655 58.3057C12.676 58.8834 12.1372 59.2739 11.5293 59.2739H8.1171C7.54902 59.2739 7.14848 58.7159 7.33067 58.1775L10.1743 49.7799C10.5304 48.7284 11.5174 48.0207 12.6274 48.0207H47.396C48.506 48.0207 49.493 48.7284 49.8491 49.7799L52.5298 57.6983C52.7317 58.2934 52.289 58.9109 51.66 58.9109V58.9109Z" fill="url(#paint14_linear)"/>
<path d="M51.66 58.9109C52.2889 58.9109 52.7316 58.2934 52.5297 57.6983L49.849 49.7803C49.4929 48.7284 48.506 48.0207 47.3954 48.0207H45.0782L47.3483 56.3698C48.0267 56.3698 48.6245 56.8148 48.8195 57.4648C49.0768 58.3231 49.8669 58.9109 50.7632 58.9109H51.66Z" fill="url(#paint15_linear)"/>
<path d="M41.1882 58.4875C41.2994 59.0162 41.7659 59.3947 42.306 59.3947H46.5765C47.3016 59.3947 47.8432 58.7278 47.6944 58.0182L47.3483 56.3698C48.0267 56.3698 48.625 56.8148 48.8196 57.4648C49.0773 58.3231 49.8669 58.9109 50.7632 58.9109H51.6604C52.289 58.9109 52.7316 58.2934 52.5297 57.6983L49.8491 49.7803C49.4929 48.7284 48.506 48.0207 47.3959 48.0207H36.8898L37.5686 57.5797H40.0703C40.6109 57.5797 41.0774 57.9583 41.1882 58.4875V58.4875Z" fill="url(#paint16_linear)"/>
<path d="M14.2017 57.338H14.7492C15.4528 57.338 15.9819 57.978 15.8501 58.6692C15.7183 59.36 16.2479 59.9999 16.9515 59.9999H22.2666V48.0207H16.1202L12.8655 58.3057C13.055 57.7285 13.5938 57.338 14.2017 57.338Z" fill="url(#paint17_linear)"/>
<path d="M20.853 48.0207L19.2481 59.9999H24.5266C25.6005 59.9999 26.5151 59.218 26.6822 58.1574L27.0177 56.027C27.0305 55.945 27.0539 55.8668 27.0845 55.7926L27.1065 55.6438L28.0912 48.0207H20.853Z" fill="url(#paint18_linear)"/>
<path d="M27.0172 56.027C27.0959 55.528 27.5262 55.16 28.0321 55.16C28.5992 55.16 29.0588 55.6196 29.0588 56.1872V53.16C29.0588 52.6272 28.6272 52.1955 28.0943 52.1955C27.5766 52.1955 27.1509 52.6043 27.1307 53.122L27.0172 56.027Z" fill="url(#paint19_linear)"/>
<path d="M49.8491 49.7803C49.4929 48.7284 48.506 48.0207 47.3959 48.0207H32.5516V58.7896H35.7037C36.5094 58.7896 37.24 58.3158 37.5687 57.5797H40.0703C40.611 57.5797 41.0774 57.9583 41.1882 58.4875C41.2994 59.0162 41.7659 59.3947 42.3061 59.3947H46.5765C47.3016 59.3947 47.8432 58.7278 47.6944 58.0182L47.3483 56.3698C48.0267 56.3698 48.6246 56.8148 48.8196 57.4648C49.0768 58.3231 49.8669 58.9109 50.7632 58.9109H51.66C52.289 58.9109 52.7316 58.2934 52.5298 57.6983L49.8491 49.7803Z" fill="url(#paint20_linear)"/>
<defs>
<radialGradient id="paint0_radial" cx="0" cy="0" r="1" gradientUnits="userSpaceOnUse" gradientTransform="translate(30.0501 18.7603) rotate(44.996) scale(32.4481)">
<stop stop-color="#FFB2BC"/>
<stop offset="0.4396" stop-color="#FEB0BC"/>
<stop offset="0.598" stop-color="#F9A9BB"/>
<stop offset="0.7108" stop-color="#F19EB9"/>
<stop offset="0.8021" stop-color="#E68DB7"/>
<stop offset="0.8803" stop-color="#D777B4"/>
<stop offset="0.9483" stop-color="#C55CB0"/>
<stop offset="1" stop-color="#B342AC"/>
</radialGradient>
<linearGradient id="paint1_linear" x1="29.9501" y1="40.0603" x2="29.9501" y2="47.25" gradientUnits="userSpaceOnUse">
<stop stop-color="#C73A6F" stop-opacity="0"/>
<stop offset="1" stop-color="#C73A6F"/>
</linearGradient>
<linearGradient id="paint2_linear" x1="29.9501" y1="46.1005" x2="29.9501" y2="49.6083" gradientUnits="userSpaceOnUse">
<stop stop-color="#FFB92D"/>
<stop offset="1" stop-color="#F59500"/>
</linearGradient>
<linearGradient id="paint3_linear" x1="31.7033" y1="47.6612" x2="29.7724" y2="39.3254" gradientUnits="userSpaceOnUse">
<stop stop-color="#BE3F45" stop-opacity="0"/>
<stop offset="1" stop-color="#BE3F45"/>
</linearGradient>
<linearGradient id="paint4_linear" x1="29.9501" y1="49.2968" x2="29.9501" y2="52.6534" gradientUnits="userSpaceOnUse">
<stop stop-color="#FFB92D"/>
<stop offset="1" stop-color="#F59500"/>
</linearGradient>
<linearGradient id="paint5_linear" x1="31.0596" y1="49.8404" x2="28.8461" y2="41.2691" gradientUnits="userSpaceOnUse">
<stop stop-color="#BE3F45" stop-opacity="0"/>
<stop offset="1" stop-color="#BE3F45"/>
</linearGradient>
<linearGradient id="paint6_linear" x1="29.9466" y1="30.6584" x2="29.9466" y2="0.478778" gradientUnits="userSpaceOnUse">
<stop offset="0.0013" stop-color="#E7EEED" stop-opacity="0"/>
<stop offset="0.7731" stop-color="#F9FBFA" stop-opacity="0.772549"/>
<stop offset="1" stop-color="white"/>
</linearGradient>
<linearGradient id="paint7_linear" x1="35.7485" y1="35.4071" x2="27.8972" y2="16.2869" gradientUnits="userSpaceOnUse">
<stop offset="0.0013" stop-color="#E7EEED" stop-opacity="0"/>
<stop offset="0.7731" stop-color="#F9FBFA" stop-opacity="0.772549"/>
<stop offset="1" stop-color="white"/>
</linearGradient>
<linearGradient id="paint8_linear" x1="17.2978" y1="26.8708" x2="11.9788" y2="13.9173" gradientUnits="userSpaceOnUse">
<stop offset="0.0013" stop-color="#E7EEED" stop-opacity="0"/>
<stop offset="0.7731" stop-color="#F9FBFA" stop-opacity="0.772549"/>
<stop offset="1" stop-color="white"/>
</linearGradient>
<linearGradient id="paint9_linear" x1="44.7812" y1="17.9811" x2="40.9807" y2="8.72576" gradientUnits="userSpaceOnUse">
<stop offset="0.0013" stop-color="#E7EEED" stop-opacity="0"/>
<stop offset="0.7731" stop-color="#F9FBFA" stop-opacity="0.772549"/>
<stop offset="1" stop-color="white"/>
</linearGradient>
<linearGradient id="paint10_linear" x1="46.8847" y1="31.7816" x2="44.1944" y2="25.2298" gradientUnits="userSpaceOnUse">
<stop offset="0.0013" stop-color="#E7EEED" stop-opacity="0"/>
<stop offset="0.7731" stop-color="#F9FBFA" stop-opacity="0.772549"/>
<stop offset="1" stop-color="white"/>
</linearGradient>
<linearGradient id="paint11_linear" x1="39.083" y1="7.36834" x2="36.3926" y2="0.816567" gradientUnits="userSpaceOnUse">
<stop offset="0.0013" stop-color="#E7EEED" stop-opacity="0"/>
<stop offset="0.7731" stop-color="#F9FBFA" stop-opacity="0.772549"/>
<stop offset="1" stop-color="white"/>
</linearGradient>
<linearGradient id="paint12_linear" x1="23.4104" y1="37.4687" x2="20.72" y2="30.9169" gradientUnits="userSpaceOnUse">
<stop offset="0.0013" stop-color="#E7EEED" stop-opacity="0"/>
<stop offset="0.7731" stop-color="#F9FBFA" stop-opacity="0.772549"/>
<stop offset="1" stop-color="white"/>
</linearGradient>
<linearGradient id="paint13_linear" x1="26.6713" y1="11.2857" x2="22.8707" y2="2.0303" gradientUnits="userSpaceOnUse">
<stop offset="0.0013" stop-color="#E7EEED" stop-opacity="0"/>
<stop offset="0.7731" stop-color="#F9FBFA" stop-opacity="0.772549"/>
<stop offset="1" stop-color="white"/>
</linearGradient>
<linearGradient id="paint14_linear" x1="15.4903" y1="54.0103" x2="45.462" y2="54.0103" gradientUnits="userSpaceOnUse">
<stop stop-color="#D767C7"/>
<stop offset="0.3166" stop-color="#D161C3"/>
<stop offset="0.7429" stop-color="#C050B6"/>
<stop offset="1" stop-color="#B342AC"/>
</linearGradient>
<linearGradient id="paint15_linear" x1="50.01" y1="51.8943" x2="45.2102" y2="57.1378" gradientUnits="userSpaceOnUse">
<stop stop-color="#B342AC" stop-opacity="0"/>
<stop offset="0.2597" stop-color="#A4319C" stop-opacity="0.258824"/>
<stop offset="0.7199" stop-color="#8D1885" stop-opacity="0.721569"/>
<stop offset="1" stop-color="#850F7C"/>
</linearGradient>
<linearGradient id="paint16_linear" x1="44.2283" y1="53.8888" x2="40.3965" y2="59.4953" gradientUnits="userSpaceOnUse">
<stop stop-color="#B342AC" stop-opacity="0"/>
<stop offset="0.2597" stop-color="#A4319C" stop-opacity="0.258824"/>
<stop offset="0.7199" stop-color="#8D1885" stop-opacity="0.721569"/>
<stop offset="1" stop-color="#850F7C"/>
</linearGradient>
<linearGradient id="paint17_linear" x1="17.5943" y1="55.2648" x2="9.72918" y2="61.4359" gradientUnits="userSpaceOnUse">
<stop stop-color="#B342AC" stop-opacity="0"/>
<stop offset="0.2597" stop-color="#A4319C" stop-opacity="0.258824"/>
<stop offset="0.7199" stop-color="#8D1885" stop-opacity="0.721569"/>
<stop offset="1" stop-color="#850F7C"/>
</linearGradient>
<linearGradient id="paint18_linear" x1="22.8367" y1="53.2973" x2="15.6976" y2="47.1867" gradientUnits="userSpaceOnUse">
<stop stop-color="#B342AC" stop-opacity="0"/>
<stop offset="0.2597" stop-color="#A4319C" stop-opacity="0.258824"/>
<stop offset="0.7199" stop-color="#8D1885" stop-opacity="0.721569"/>
<stop offset="1" stop-color="#850F7C"/>
</linearGradient>
<linearGradient id="paint19_linear" x1="28.0383" y1="56.6421" x2="28.0383" y2="51.4494" gradientUnits="userSpaceOnUse">
<stop stop-color="#B342AC" stop-opacity="0"/>
<stop offset="0.2597" stop-color="#A4319C" stop-opacity="0.258824"/>
<stop offset="0.7199" stop-color="#8D1885" stop-opacity="0.721569"/>
<stop offset="1" stop-color="#850F7C"/>
</linearGradient>
<linearGradient id="paint20_linear" x1="36.1584" y1="51.551" x2="20.1256" y2="44.2908" gradientUnits="userSpaceOnUse">
<stop stop-color="#B342AC" stop-opacity="0"/>
<stop offset="0.2597" stop-color="#A4319C" stop-opacity="0.258824"/>
<stop offset="0.7199" stop-color="#8D1885" stop-opacity="0.721569"/>
<stop offset="1" stop-color="#850F7C"/>
</linearGradient>
</defs>
</svg>
