<svg width="54" height="54" viewBox="0 0 54 54" fill="none" xmlns="http://www.w3.org/2000/svg">
<g clip-path="url(#clip0)">
<path d="M39.598 2.343C42.722 -0.781 47.788 -0.781 50.912 2.343C54.036 5.467 54.036 10.533 50.912 13.657L39.598 2.343Z" fill="#D75A4A"/>
<path d="M42.426 17.899L16.512 43.814L15.982 48.587L44.548 20.02L42.426 17.899Z" fill="#ED8A19"/>
<path d="M10.325 42.93L15.098 42.4L41.012 16.485L36.77 12.243L10.855 38.157L10.325 42.93Z" fill="#ED8A19"/>
<path d="M35.356 10.829L33.234 8.707L4.668 37.273L9.441 36.743L35.356 10.829Z" fill="#ED8A19"/>
<path d="M48.79 15.778L50.912 13.657L39.598 2.343L37.476 4.465H37.477L48.79 15.778Z" fill="#C7CAC7"/>
<path d="M36.062 5.879L34.648 7.293L45.962 18.606L47.376 17.192L36.062 5.879Z" fill="#C7CAC7"/>
<path d="M14.424 44.488L9.30199 45.057C9.26599 45.061 9.22899 45.063 9.19299 45.063H9.19199C9.19099 45.063 9.19099 45.063 9.19099 45.063C9.15499 45.063 9.11799 45.061 9.08199 45.057C9.04299 45.053 9.01099 45.031 8.97399 45.022C8.90199 45.005 8.83299 44.987 8.76699 44.955C8.71699 44.931 8.67399 44.902 8.62899 44.871C8.57199 44.831 8.51999 44.788 8.47199 44.737C8.43399 44.697 8.40299 44.656 8.37199 44.61C8.33399 44.553 8.30299 44.494 8.27699 44.429C8.25499 44.375 8.23899 44.322 8.22699 44.264C8.21999 44.232 8.20299 44.205 8.19899 44.172C8.19499 44.134 8.20899 44.099 8.20899 44.062C8.20899 44.024 8.19499 43.99 8.19899 43.952L8.76799 38.83L3.64599 39.399C3.60899 39.403 3.57099 39.405 3.53499 39.405C3.45599 39.405 3.38299 39.381 3.30799 39.363L0.441986 51.399L2.54799 49.293C2.93899 48.902 3.57099 48.902 3.96199 49.293C4.35299 49.684 4.35299 50.316 3.96199 50.707L1.85599 52.813L13.886 49.949C13.86 49.84 13.843 49.727 13.856 49.61L14.424 44.488Z" fill="#FBCE9D"/>
<path d="M3.962 49.293C3.571 48.902 2.939 48.902 2.548 49.293L0.442 51.399L0 53.255L1.856 52.813L3.962 50.707C4.352 50.316 4.352 49.684 3.962 49.293Z" fill="#38454F"/>
<path d="M48.79 15.778L37.477 4.465H37.476L36.062 5.879L47.376 17.192L48.79 15.778Z" fill="#F2ECBF"/>
<path d="M41.012 16.485L15.098 42.4L10.325 42.93L10.855 38.157L36.77 12.243L35.356 10.829L9.44101 36.743L4.66801 37.273L3.53501 38.406L3.30701 39.363C3.38201 39.381 3.45401 39.405 3.53401 39.405C3.57001 39.405 3.60801 39.403 3.64501 39.399L8.76701 38.83L8.19801 43.952C8.19401 43.99 8.20801 44.025 8.20801 44.062C8.20801 44.1 8.19401 44.134 8.19801 44.172C8.20201 44.205 8.21901 44.232 8.22601 44.264C8.23801 44.321 8.25501 44.376 8.27601 44.429C8.30201 44.493 8.33301 44.553 8.37101 44.61C8.40101 44.655 8.43401 44.698 8.47101 44.737C8.51801 44.787 8.57101 44.831 8.62801 44.871C8.67201 44.902 8.71701 44.932 8.76601 44.955C8.83101 44.986 8.90101 45.005 8.97301 45.022C9.01101 45.031 9.04201 45.052 9.08101 45.057C9.11701 45.061 9.15301 45.063 9.19001 45.063H9.19101H9.19201H9.19301H9.19401C9.22901 45.063 9.26601 45.061 9.30301 45.057L14.425 44.488L13.856 49.61C13.843 49.728 13.86 49.84 13.886 49.949L14.849 49.72L15.982 48.588L16.512 43.815L42.426 17.9L41.012 16.485Z" fill="#EBBA16"/>
<path d="M45.962 18.606L34.648 7.293L33.234 8.707L35.356 10.829L36.77 12.243L41.012 16.485L42.426 17.899L44.548 20.02L45.962 18.606Z" fill="#F2ECBF"/>
</g>
<defs>
<clipPath id="clip0">
<rect width="53.255" height="53.255" fill="white"/>
</clipPath>
</defs>
</svg>