<svg width="80" height="80" viewBox="0 0 80 80" fill="none" xmlns="http://www.w3.org/2000/svg">
<rect x="1" y="1" width="78" height="78" fill="#2B2B2B" stroke="#242424" stroke-width="2"/>
<path d="M20.1602 54.082H25.3164V60H20.1602V54.082Z" fill="#61DAFB"/>
<path d="M64.2715 16.2412L57.7676 19.7568L64.2715 23.2871L63.2461 25.0742L57.123 21.3975V28.2236H55.0283V21.3975L48.9053 25.0742L47.8799 23.2871L54.3984 19.7568L47.8799 16.2412L48.9053 14.4395L55.0283 18.1162V11.29H57.123V18.1162L63.2461 14.4395L64.2715 16.2412Z" fill="#61DAFB"/>
<path d="M56.5986 54.5039V60.8613C57.6729 60.832 58.5127 60.5342 59.1182 59.9678C59.7236 59.4014 60.0264 58.6299 60.0264 57.6533C60.0264 56.7451 59.7529 56.042 59.2061 55.5439C58.6592 55.0361 57.79 54.6895 56.5986 54.5039ZM55.1338 51.7207V45.6709C54.1182 45.71 53.3223 46.0029 52.7461 46.5498C52.1797 47.0967 51.8965 47.8291 51.8965 48.7471C51.8965 49.5869 52.1602 50.251 52.6875 50.7393C53.2246 51.2275 54.04 51.5547 55.1338 51.7207ZM56.5986 67.4092H55.1338L55.1191 63C54.123 62.9512 53.1318 62.8145 52.1455 62.5898C51.1689 62.3652 50.2021 62.0527 49.2451 61.6523V59.0156C50.2217 59.6211 51.2031 60.085 52.1895 60.4072C53.1855 60.7295 54.167 60.9004 55.1338 60.9199V54.2109C53.1807 53.9082 51.7109 53.3125 50.7246 52.4238C49.7383 51.5352 49.2451 50.3584 49.2451 48.8936C49.2451 47.3604 49.7578 46.1396 50.7832 45.2314C51.8184 44.3135 53.2686 43.7861 55.1338 43.6494V40.207H56.5986L56.6133 43.6494C57.3848 43.6982 58.166 43.7959 58.957 43.9424C59.748 44.0889 60.5537 44.2891 61.374 44.543V47.0771C60.5439 46.6572 59.7334 46.335 58.9424 46.1104C58.1611 45.876 57.3799 45.7393 56.5986 45.7002V52.0137C58.6104 52.3164 60.1436 52.9414 61.1982 53.8887C62.2529 54.8359 62.7803 56.0615 62.7803 57.5654C62.7803 59.0693 62.209 60.3242 61.0664 61.3301C59.9336 62.3359 58.4492 62.8828 56.6133 62.9707L56.5986 67.4092Z" fill="white"/>
<path d="M23.7891 15.2031L30.9814 23.9336L27.8613 23.9189L22.4854 18.1621L17.124 23.9189L13.9893 23.9336L21.1963 15.2031H23.7891Z" fill="white"/>
</svg>
