<svg width="80" height="80" viewBox="0 0 80 80" fill="none" xmlns="http://www.w3.org/2000/svg">
<rect x="1" y="1" width="78" height="78" fill="#2B2B2B" stroke="#242424" stroke-width="2"/>
<path fill-rule="evenodd" clip-rule="evenodd" d="M48.4743 12C51.1455 11.9948 53.7581 12.8114 55.9815 14.3465C58.2049 15.8816 59.9393 18.0663 60.965 20.624C61.9907 23.1817 62.2617 25.9974 61.7437 28.7149C61.2257 31.4324 59.942 33.9295 58.055 35.8901C56.168 37.8507 53.7626 39.1867 51.1432 39.729C48.5237 40.2714 45.808 39.9957 43.3397 38.9369C40.8714 37.878 38.7615 36.0836 37.277 33.7808C35.7924 31.4779 35 28.7701 35 26C34.997 22.2907 36.4149 18.7319 38.9417 16.1065C41.4685 13.4811 44.8974 12.004 48.4743 12V12Z" stroke="#10A8C8" stroke-width="2" stroke-linecap="round"/>
<path d="M24.3438 68L26.4442 48.696C26.4442 48.696 26.8778 46.4831 24.9735 43.1474C23.0692 39.8116 12.3688 20.3552 12.3688 20.3552C12.3688 20.3552 9.27975 9.46261 20.9824 12.5516C32.685 15.6406 38 17.272 38 17.272" stroke="#10A8C8" stroke-width="2" stroke-linecap="round"/>
<path d="M31 36L22 21" stroke="#10A8C8" stroke-width="2" stroke-linecap="round"/>
<path d="M56 52L57 68" stroke="#10A8C8" stroke-width="2" stroke-linecap="round"/>
<path d="M57 38L59.9386 41.0437C61.3206 42.6919 62.2414 44.9142 62.5507 47.3478C62.9702 51.2489 65 68 65 68" stroke="#10A8C8" stroke-width="2" stroke-linecap="round"/>
</svg>
