<svg width="55" height="58" viewBox="0 0 55 58" fill="none" xmlns="http://www.w3.org/2000/svg">
<path fill-rule="evenodd" clip-rule="evenodd" d="M37.4743 1.00003C40.1455 0.994759 42.7581 1.81137 44.9815 3.3465C47.2049 4.88164 48.9393 7.06629 49.965 9.62399C50.9907 12.1817 51.2617 14.9974 50.7437 17.7149C50.2257 20.4324 48.942 22.9295 47.055 24.8901C45.168 26.8507 42.7626 28.1867 40.1432 28.729C37.5237 29.2714 34.808 28.9957 32.3397 27.9369C29.8714 26.878 27.7615 25.0836 26.277 22.7808C24.7924 20.4779 24 17.7701 24 15C23.997 11.2907 25.4149 7.73194 27.9417 5.10653C30.4685 2.48111 33.8974 1.00399 37.4743 1.00003V1.00003Z" stroke="#10A8C8" stroke-width="2" stroke-linecap="round"/>
<path d="M13.3438 57L15.4442 37.696C15.4442 37.696 15.8778 35.4831 13.9735 32.1474C12.0692 28.8116 1.36877 9.35519 1.36877 9.35519C1.36877 9.35519 -1.72025 -1.53739 9.98238 1.55159C21.685 4.64056 27 6.27201 27 6.27201" stroke="#10A8C8" stroke-width="2" stroke-linecap="round"/>
<path d="M20 25L11 10" stroke="#10A8C8" stroke-width="2" stroke-linecap="round"/>
<path d="M45 41L46 57" stroke="#10A8C8" stroke-width="2" stroke-linecap="round"/>
<path d="M46 27L48.9386 30.0437C50.3206 31.6919 51.2414 33.9142 51.5507 36.3478C51.9702 40.2489 54 57 54 57" stroke="#10A8C8" stroke-width="2" stroke-linecap="round"/>
</svg>
